<svg width="418" height="289" viewBox="0 0 418 289" fill="none" xmlns="http://www.w3.org/2000/svg">
<rect width="418" height="289" fill="#121212"/>
<path d="M228.056 10.4228C227.797 11.2496 227.97 12.7195 228.574 13.7301C229.783 15.843 229.006 17.4967 227.02 16.7617C225.898 16.3942 225.121 17.221 223.913 19.7015C221.928 24.1111 220.46 48.0887 221.928 51.9471C222.791 54.152 222.963 54.2438 223.222 52.5902C223.395 51.5797 224.344 48.3643 225.294 45.5164C226.244 42.5766 227.538 36.5133 228.143 32.0118C228.919 26.7753 230.387 21.447 232.2 17.221C234.53 11.709 234.789 10.5147 233.753 9.77974C231.768 8.49359 228.661 8.86106 228.056 10.4228Z" fill="white"/>
<path d="M195.944 14.373C195.168 14.9242 194.822 16.7615 194.822 19.5176C194.995 24.9378 195.34 26.3158 198.879 32.6547C200.433 35.5945 202.418 40.3716 203.195 43.4032C204.231 47.2617 205.526 49.7421 207.684 51.8551C210.964 55.1623 212.777 55.8054 211.827 53.2331C210.619 50.2933 208.806 42.5764 208.806 40.1879C208.806 38.9017 207.77 35.4107 206.562 32.3791C205.181 28.98 204.145 24.2947 203.886 20.1606L203.368 13.5461H200.26C198.534 13.5461 196.635 13.9136 195.944 14.373Z" fill="white"/>
<path d="M210.88 15.751C210.621 17.129 210.535 20.8038 210.88 23.9273C211.139 27.0508 211.657 33.5734 212.089 38.4424C212.779 46.8024 214.506 52.1307 216.491 52.1307C216.836 52.1307 217.527 49.3747 217.872 45.8837C218.476 39.5448 218.563 37.7075 218.217 27.9695C218.045 24.0191 218.476 21.355 219.512 19.1501C221.411 15.3836 220.634 14.373 215.369 13.8218C211.743 13.3625 211.484 13.4543 210.88 15.751Z" fill="white"/>
<path d="M236.09 18.3233C233.241 22.3655 232.119 25.6727 231.17 32.8384C230.738 36.1457 229.616 41.0147 228.666 43.6789C226.854 48.9153 226.422 54.5193 227.803 56.7241C228.494 57.8265 228.666 57.6428 228.666 55.8054C228.666 54.5193 229.875 50.8446 231.342 47.5373C232.896 44.2301 234.622 38.9017 235.313 35.5945C235.917 32.3791 237.385 27.8776 238.593 25.6727C240.061 22.8248 240.579 20.8956 240.147 18.9664C239.456 15.1079 238.593 14.9242 236.09 18.3233Z" fill="white"/>
<path d="M183.61 18.7827C181.28 20.0688 179.467 21.7225 179.467 22.2737C179.467 26.3159 182.574 33.2978 186.2 37.6156C188.53 40.2798 190.861 43.8626 191.552 45.5163C194.4 53.2332 200.011 58.5615 205.104 58.5615L207.521 58.4697L205.622 56.816C203.032 54.5193 199.321 48.5479 199.321 46.7106C199.321 45.7919 196.99 40.1879 194.141 34.2165C190.516 26.5915 188.962 22.2737 188.962 19.7932C188.962 17.864 188.703 16.3023 188.358 16.3023C187.926 16.3023 185.855 17.4047 183.61 18.7827Z" fill="white"/>
<path d="M241.262 26.3158C240.485 27.7857 239.19 31.8279 238.327 35.3189C237.378 38.8099 235.651 43.7707 234.357 46.4349C232.026 51.3039 231.249 59.6639 232.975 60.8582C233.493 61.2256 233.839 60.307 233.839 58.7452C233.839 57.2753 235.392 52.7738 237.291 48.6397C239.19 44.5975 240.744 40.831 240.744 40.1879C240.744 39.6367 241.176 39.4529 241.607 39.7285C243.161 40.7391 242.557 43.3114 239.449 48.6397C237.464 52.0389 236.169 55.5298 235.824 58.5615C235.22 64.0736 235.997 64.6248 237.291 59.572C237.982 56.816 242.643 48.0885 245.664 43.9545C245.837 43.7707 246.182 43.8626 246.441 44.1382C246.787 44.5057 245.578 46.9861 243.765 49.834C241.09 53.9681 240.399 55.8973 240.14 60.2151L239.881 65.4516L241.435 60.307C242.384 57.4591 244.629 52.9575 246.614 50.2015C248.772 47.1699 249.808 45.0569 249.204 44.6894C248.686 44.3219 248.513 43.0358 248.858 41.6578C249.204 40.2798 249.808 39.4529 250.239 39.7285C250.757 40.096 250.844 41.2903 250.585 42.5765C250.239 43.8626 250.412 44.7813 251.016 44.7813C252.397 44.7813 251.189 47.5373 247.823 51.947C245.319 55.1624 244.715 56.9079 244.37 61.1338C244.111 63.9817 243.679 66.554 243.42 66.8296C242.816 67.3808 241.003 73.6278 239.795 79.6911C239.363 81.9878 238.759 84.652 238.5 85.6625C238.155 87.3161 238.241 87.2243 239.795 85.2951C240.831 84.1008 241.607 82.6309 241.607 81.9878C241.607 81.3447 242.384 79.048 243.334 76.8432C244.283 74.4546 245.06 70.7799 245.06 67.932C245.06 61.8687 246.7 57.7347 251.103 52.4063C253.002 50.1096 254.556 47.7211 254.556 47.078C254.556 46.4349 255.591 44.4138 256.8 42.4846C258.44 39.9123 258.699 38.718 258.008 37.9831C257.318 37.2481 256.455 37.6156 254.987 39.4529C251.275 44.0463 250.671 41.7496 254.21 36.7888C256.282 33.9409 256.541 31.0011 254.728 31.0011C254.383 31.0011 253.088 32.6547 251.966 34.6758C250.757 36.6969 249.549 38.3505 249.204 38.3505C247.909 38.3505 248.513 35.962 250.757 32.5628C252.484 29.8068 252.743 28.7963 251.966 27.7857C250.498 25.8565 248.945 26.9589 246.441 32.0116C245.147 34.4921 243.679 36.5132 243.161 36.5132C241.866 36.5132 243.075 32.0116 245.492 28.0613C247.218 25.2134 247.391 24.6622 246.269 24.2029C243.679 23.1923 242.471 23.6517 241.262 26.3158ZM246.269 39.4529C245.578 42.1171 245.319 42.3009 244.37 41.6578C243.075 40.831 244.197 37.4318 245.664 37.4318C246.528 37.4318 246.7 37.9831 246.269 39.4529Z" fill="white"/>
<path d="M168.932 27.7857C167.205 28.98 165.565 30.358 165.392 30.8173C164.788 31.8279 167.809 38.9936 170.485 42.6683C171.694 44.3219 174.974 47.3536 177.823 49.4665C180.671 51.4876 184.815 55.2542 187.059 57.8265C192.152 63.6142 197.245 66.8296 201.302 66.8296C205.618 66.8296 205.963 65.4516 201.992 64.1654C198.194 62.9711 194.482 58.9289 190.684 51.8551C189.303 49.1909 185.764 44.5975 182.829 41.5659C177.477 35.962 174.283 30.7255 174.283 27.3264C174.283 24.9378 172.902 25.0297 168.932 27.7857Z" fill="white"/>
<path d="M153.733 39.3609C151.748 40.9227 150.107 42.7601 150.107 43.4031C150.107 45.5161 157.445 55.2541 161.07 57.9183C162.969 59.2963 167.544 61.6849 171.17 63.1547C174.881 64.7165 180.579 67.7481 183.859 70.0448C191.541 75.3732 195.167 76.9349 199.655 76.9349C203.108 76.9349 208.546 74.2708 205.266 74.1789C200.432 74.087 194.649 70.9635 188.865 65.4514C185.499 62.2361 179.974 58.0101 176.608 56.1728C169.098 51.9469 162.883 45.9754 160.466 40.5552C159.43 38.3504 158.308 36.513 157.963 36.513C157.617 36.513 155.718 37.7992 153.733 39.3609Z" fill="white"/>
<path d="M256.202 46.8023C254.821 50.0177 252.75 53.968 251.541 55.7135C250.16 57.7346 249.383 60.0313 249.469 62.1443V65.4515L250.505 62.5118C251.109 60.95 252.836 57.9184 254.476 55.8054C257.842 51.5795 261.382 43.9544 260.864 42.2089C260.087 39.9122 258.706 41.2903 256.202 46.8023Z" fill="white"/>
<path d="M261.637 45.4243C261.119 46.3429 260.515 48.364 260.256 49.9258C259.911 51.4875 258.702 54.1517 257.494 55.8972C255.509 58.837 254.559 64.8084 256.285 63.6141C256.803 63.3385 257.149 62.328 257.149 61.4093C257.149 60.5825 258.271 58.6532 259.738 57.1834C261.119 55.8053 262.846 52.9574 263.45 50.8445C264.141 48.7315 265.004 46.3429 265.349 45.4243C265.781 44.23 265.522 43.8625 264.141 43.8625C263.191 43.8625 262.069 44.5974 261.637 45.4243Z" fill="white"/>
<path d="M267.763 45.8834C267.245 46.5264 266.382 48.5475 265.864 50.3849C265.346 52.2222 263.879 55.0701 262.757 56.7238C260.512 59.9391 259.994 62.6952 261.462 63.6139C261.98 63.8895 262.325 63.3383 262.325 62.4196C262.325 61.409 263.447 59.3879 264.828 58.0099C267.073 55.6214 270.957 47.8126 270.957 45.6077C270.957 44.4135 268.713 44.5972 267.763 45.8834Z" fill="white"/>
<path d="M273.123 48.5477C271.915 50.1095 270.965 52.2224 270.965 53.233C270.965 54.3354 270.016 56.9996 268.807 59.2044C267.081 62.236 266.822 63.5222 267.426 64.8083C268.203 66.1864 268.289 66.1864 268.376 64.9002C268.376 63.9815 269.757 61.2255 271.397 58.5613C273.037 55.8972 274.418 53.233 274.418 52.5899C274.418 51.9468 275.195 50.3851 276.144 49.0989C278.82 45.5161 275.972 44.9649 273.123 48.5477Z" fill="white"/>
<path d="M279.334 50.0176C277.867 51.855 273.551 60.3069 273.551 61.4093C273.551 63.1548 275.105 62.0524 275.622 60.0313C275.881 58.7451 277.522 55.8972 279.162 53.6005C280.802 51.2119 282.183 49.1908 282.183 48.9152C282.183 47.9047 280.629 48.5478 279.334 50.0176Z" fill="white"/>
<path d="M145.179 51.3956C144.143 52.7737 141.467 60.7662 141.467 62.6035C141.467 64.0734 146.991 69.953 151.394 73.1684C155.623 76.2919 158.127 77.3024 167.104 79.691C175.909 81.9877 177.462 82.7226 185.231 88.051C188.684 90.4395 193 92.6444 194.727 92.92C198.179 93.563 206.294 91.7257 210.351 89.429L212.681 88.1428L209.66 87.5916C208.02 87.316 204.308 86.8567 201.46 86.4892C194.727 85.7543 192.396 84.6519 184.627 78.4048C179.966 74.7301 176.427 72.709 172.111 71.331C168.83 70.3205 164.342 68.7587 162.184 68.0238C157.781 66.2783 150.271 58.837 147.768 53.6005C146.473 50.8444 145.869 50.3851 145.179 51.3956Z" fill="white"/>
<path d="M283.211 53.2331C282.002 54.9786 279.413 60.4907 279.758 60.8581C279.931 61.0419 281.053 59.1126 282.434 56.6322C284.678 52.3144 285.024 50.9364 283.211 53.2331Z" fill="white"/>
<path d="M283.905 59.3883C282.955 61.5013 282.265 63.1549 282.524 63.1549C283.128 63.1549 286.581 56.5404 286.149 56.0811C285.976 55.8055 284.941 57.2754 283.905 59.3883Z" fill="white"/>
<path d="M222.36 64.7166C222.015 64.9922 221.756 67.2889 221.756 69.7693C221.756 73.5359 222.015 74.179 223.482 74.179C225.036 74.179 225.209 73.5359 225.209 69.1262C225.209 65.5434 224.863 64.0735 224.087 64.0735C223.396 64.0735 222.619 64.3491 222.36 64.7166Z" fill="white"/>
<path d="M227.45 64.8081C227.191 65.2675 227.018 69.4015 227.104 74.0868C227.191 81.5281 227.363 82.4468 228.831 82.4468C230.212 82.4468 230.385 81.5281 230.557 75.0973C230.644 71.0551 230.73 67.013 230.73 66.1861C230.816 64.4407 228.313 63.4301 227.45 64.8081Z" fill="white"/>
<path d="M270.095 65.4516C270.095 66.1865 269.577 66.8296 269.059 66.8296C268.282 66.8296 267.937 68.5751 267.937 72.6173C267.937 77.5782 267.592 78.9562 265.606 81.7122C264.312 83.5496 262.413 87.7755 261.29 91.1746C260.082 95.4006 258.442 98.4322 256.456 100.453C252.917 104.128 253.694 104.495 258.183 101.28C260.341 99.7183 262.154 97.146 264.053 92.8283C265.52 89.521 267.851 85.2951 269.059 83.5496C271.045 80.7017 271.39 79.4155 271.304 73.9953C271.217 67.289 272.598 65.8191 273.721 71.5149C274.497 75.6489 273.375 80.5179 270.44 85.8463C269.059 88.2349 266.901 92.6445 265.606 95.4924C264.139 98.9834 262.24 101.464 260.427 102.658C257.579 104.495 257.579 104.495 259.823 104.495C262.672 104.495 265.693 101.556 268.887 95.6762C270.268 93.1957 272.685 89.0617 274.238 86.5812C276.828 82.3553 277.087 81.5285 276.828 75.7408C276.655 71.3311 276.828 69.5857 277.691 69.5857C279.072 69.5857 278.986 68.4832 277.519 66.2784C276.31 64.6248 276.224 64.6248 275.706 66.0947C274.843 68.2995 272.685 68.2076 272.685 65.9109C272.685 64.9004 272.08 64.0736 271.39 64.0736C270.699 64.0736 270.095 64.7167 270.095 65.4516Z" fill="white"/>
<path d="M218.475 66.0946C216.576 68.1156 217.784 73.2603 220.201 73.2603C220.547 73.2603 220.892 71.4229 220.892 69.1262C220.892 64.9003 220.288 64.1653 218.475 66.0946Z" fill="white"/>
<path d="M232.631 67.0133C231.509 71.7905 230.991 83.3658 232.027 83.3658C232.545 83.3658 232.976 83.274 232.976 83.0902C233.063 82.9984 233.58 79.5993 234.271 75.5571C234.962 71.5149 235.566 67.4727 235.566 66.554C235.566 64.2573 233.235 64.6248 232.631 67.0133Z" fill="white"/>
<path d="M256.978 65.5434C256.115 66.462 257.323 69.5855 258.532 69.5855C259.999 69.5855 259.999 70.5042 258.877 73.6277C257.668 77.1187 256.287 76.5675 256.892 72.8009C257.237 70.2286 257.064 69.5855 255.942 69.5855C255.079 69.5855 254.561 68.8506 254.561 67.6563C254.561 64.5328 252.403 66.1864 252.144 69.4937C251.971 71.5148 252.144 72.3416 252.748 71.8822C253.352 71.6066 253.698 72.066 253.698 73.1684C253.698 75.1895 251.971 75.9244 251.885 73.9033C251.799 72.1578 248.864 79.7829 248.173 83.4576C247.914 85.3868 246.619 88.3266 245.497 90.164C244.375 92.0013 243.771 93.4712 244.202 93.4712C245.584 93.4712 249.468 87.3161 251.54 81.804C252.662 78.8642 254.043 76.3838 254.647 76.1082C255.338 75.9244 255.51 76.2919 254.993 77.4862C254.647 78.4967 253.266 82.4471 251.971 86.3974C250.677 90.3477 248.777 94.5736 247.655 95.7679C246.015 97.6053 245.929 98.0646 246.965 98.0646C249.468 98.0646 254.388 90.807 255.424 85.7543C256.374 80.7016 259.136 75.0976 260.603 75.0976C261.898 75.0976 261.726 75.7407 259.395 79.9666C258.186 82.0796 256.719 86.2136 255.942 89.2453C255.165 92.4607 253.698 95.6761 252.317 97.2378C250.504 99.2589 250.245 99.902 251.281 99.902C253.266 99.902 257.668 94.298 258.877 90.0721C259.481 88.1429 260.949 84.9275 262.157 82.9983C265.696 76.935 266.818 73.3521 266.214 69.5855C265.869 67.197 265.092 65.9108 263.97 65.6352C262.589 65.2678 262.33 65.6352 262.33 68.3913C262.33 71.1473 262.157 71.5148 261.035 70.5042C260.344 69.8611 259.74 68.3913 259.74 67.197C259.74 65.1759 258.186 64.2572 256.978 65.5434Z" fill="white"/>
<path d="M236.603 72.066C236.085 75.557 235.395 79.7829 235.05 81.5284C234.1 86.8567 236.69 83.0901 238.848 75.9244C241.178 68.4831 241.265 65.9108 239.193 65.9108C237.984 65.9108 237.467 67.197 236.603 72.066Z" fill="white"/>
<path d="M247.222 70.2285C246.877 72.1578 245.927 75.5569 245.15 77.8536C244.287 80.1503 243.338 83.09 242.992 84.4681C242.733 85.7542 242.216 87.5916 241.87 88.6021C241.352 90.1639 241.352 90.1639 243.165 88.5103C244.201 87.5916 245.668 84.7437 246.445 82.2632C247.222 79.6909 248.431 76.5674 249.035 75.1894C250.675 71.974 250.589 66.8294 248.949 66.8294C248.172 66.8294 247.567 68.1156 247.222 70.2285Z" fill="white"/>
<path d="M282.18 68.0238C282.18 68.9425 281.489 69.5856 280.626 69.5856C279.245 69.5856 279.072 70.2286 279.418 74.6383C280.022 82.0796 278.986 85.8462 275.361 90.0721C273.548 92.1851 271.217 95.6761 270.268 97.6972C269.232 99.8101 267.333 102.382 266.038 103.485L263.621 105.322L266.47 105.414C269.664 105.414 270.872 104.312 278.209 94.7574C283.993 87.3161 285.115 84.1926 284.338 77.8537C283.993 75.0976 283.647 71.6985 283.561 70.3205C283.475 67.6563 282.18 65.6352 282.18 68.0238Z" fill="white"/>
<path d="M287.103 68.483C285.895 68.7586 285.636 69.4017 285.981 70.7797C287.276 75.5568 287.448 83.1819 286.499 86.9485C285.722 89.9801 283.909 92.828 279.766 97.4214C276.572 100.912 272.86 104.587 271.565 105.414L269.148 107.068L271.306 107.619C274.069 108.354 277.608 106.884 280.888 103.668C282.355 102.199 284.945 100.086 286.672 98.7994C293.836 93.8386 295.821 87.2241 291.851 81.6201C289.606 78.4048 289.434 76.9349 291.247 76.9349C292.8 76.9349 292.8 76.7511 291.592 72.2496C290.556 68.5749 289.693 67.8399 287.103 68.483Z" fill="white"/>
<path d="M293.572 72.3415C294.522 76.2918 296.853 77.3943 296.853 73.9033C296.853 71.9741 294.522 68.6668 293.227 68.6668C292.968 68.6668 293.141 70.3204 293.572 72.3415Z" fill="white"/>
<path d="M140.615 76.5674C140.702 83.5493 145.363 90.8988 152.096 94.5735C153.909 95.4922 159.865 97.3295 165.303 98.5238C171.518 99.9018 176.784 101.647 179.287 103.209C192.753 111.477 195.688 111.845 206.046 106.608C210.449 104.403 214.333 103.117 217.699 102.842C223.483 102.382 223.31 100.821 217.182 99.075C214.074 98.1563 212.175 98.2482 204.492 99.9018C193.271 102.474 191.544 102.015 181.359 93.6548C171.95 86.0298 170.741 85.3867 162.368 83.8249C155.376 82.5388 148.557 79.5072 143.464 75.2812L140.615 73.0764V76.5674Z" fill="white"/>
<path d="M132.416 77.8538C132.157 78.3131 132.675 78.7725 133.625 78.7725C134.574 78.7725 135.61 78.3131 135.869 77.8538C136.128 77.3026 135.61 76.9351 134.66 76.9351C133.711 76.9351 132.675 77.3026 132.416 77.8538Z" fill="white"/>
<path d="M217.868 78.7719C217.177 80.0581 218.126 81.528 219.68 81.528C220.371 81.528 220.889 80.7011 220.889 79.6906C220.889 77.7614 218.817 77.1183 217.868 78.7719Z" fill="white"/>
<path d="M222.617 80.1506C222.617 81.9879 222.962 82.5391 224.171 82.2635C224.948 82.0798 225.638 81.1611 225.638 80.1506C225.638 79.14 224.948 78.2213 224.171 78.0376C222.962 77.762 222.617 78.3132 222.617 80.1506Z" fill="white"/>
<path d="M295.472 81.62C298.407 91.9092 298.062 97.7888 294.436 101.739C292.106 104.22 282.869 107.986 276.568 108.997L273.115 109.64L276.05 111.293C277.949 112.304 279.935 112.763 281.661 112.396C283.128 112.12 286.754 111.569 289.689 111.11C296.335 110.007 300.22 107.527 302.81 102.566C304.45 99.5343 304.709 97.9725 304.277 94.7571C303.5 88.5101 300.306 82.5387 296.508 80.4257C295.041 79.5989 294.954 79.6908 295.472 81.62Z" fill="white"/>
<path d="M132.073 83.2739C131.296 83.8251 132.245 84.1926 135.094 84.4682C139.755 84.9276 140.791 84.6519 138.892 83.3658C137.252 82.2634 133.627 82.2634 132.073 83.2739Z" fill="white"/>
<path d="M305.491 86.3056C305.491 86.4893 306.354 88.8779 307.304 91.6339C308.339 94.4818 309.203 98.9834 309.289 102.015C309.375 106.884 309.116 107.619 306.786 109.824C305.318 111.294 300.484 113.59 295.391 115.428C286.069 118.735 285.723 118.735 277.437 114.968C275.71 114.233 275.71 114.233 277.35 116.898C279.681 120.664 281.925 122.502 286.328 124.339C289.953 125.901 290.126 125.809 295.823 123.42C299.017 122.134 303.937 120.389 306.786 119.562C315.504 117.173 319.129 111.386 317.489 102.291C316.54 96.9623 314.296 92.7364 310.152 88.9698C307.649 86.5812 305.491 85.3869 305.491 86.3056Z" fill="white"/>
<path d="M129.477 87.8673C128.527 88.5103 129.131 88.8778 131.635 89.3371C133.447 89.7046 136.296 90.3477 137.936 90.807C141.82 91.8176 142.079 91.3582 139.231 88.9697C136.814 86.9486 131.721 86.3974 129.477 87.8673Z" fill="white"/>
<path d="M125.163 93.8386C125.336 94.0224 127.926 95.2166 130.947 96.5028C134.918 98.1564 136.299 98.432 136.299 97.5133C136.299 95.4004 132.587 93.4711 128.616 93.4711C126.545 93.4711 124.991 93.6549 125.163 93.8386Z" fill="white"/>
<path d="M142.949 101.464C142.518 106.516 142.604 106.884 145.194 109.364C149.51 113.498 154.085 115.611 164.788 118.367C170.486 119.837 177.65 122.501 181.621 124.614C185.419 126.636 189.476 128.565 190.512 128.84C194.137 129.943 198.194 128.381 204.151 123.604C210.97 118.276 217.789 114.601 220.897 114.693C222.105 114.693 224.522 115.244 226.335 115.887C229.788 117.265 229.96 117.173 228.666 114.509C226.076 109.456 217.358 108.446 208.726 112.304C198.799 116.714 197.245 117.265 193.619 117.357C191.202 117.357 188.354 116.438 184.987 114.509C182.225 112.947 178.168 110.65 176.01 109.456C173.593 108.078 169.363 106.884 164.788 106.333C156.933 105.322 149.941 102.199 146.575 98.432C145.453 97.2378 144.33 96.2272 143.985 96.2272C143.726 96.2272 143.208 98.6158 142.949 101.464Z" fill="white"/>
<path d="M119.983 97.6971C119.983 98.4321 129.306 103.577 130.601 103.577C131.637 103.577 129.392 99.9938 127.839 99.0751C125.594 97.789 119.897 96.8703 119.983 97.6971Z" fill="white"/>
<path d="M115.067 101.004C116.016 101.647 118.002 103.393 119.642 104.863C122.232 107.159 122.49 107.251 122.49 105.69C122.49 103.209 119.901 100.912 116.362 100.361C113.772 99.9018 113.599 99.9937 115.067 101.004Z" fill="white"/>
<path d="M107.811 101.28C107.811 101.555 109.192 103.577 110.832 105.965L113.853 110.191V107.343C113.853 105.506 113.162 104.036 111.609 102.75C109.451 100.912 107.811 100.269 107.811 101.28Z" fill="white"/>
<path d="M94.2576 104.22C94.9481 105.69 95.6387 107.435 95.8977 108.17C96.243 109.273 96.5019 109.089 97.3651 107.527C98.2283 105.782 98.0557 105.139 96.5882 103.577C94.0849 100.913 92.8765 101.28 94.2576 104.22Z" fill="white"/>
<path d="M102.026 104.955C104.271 108.629 105.22 108.997 105.22 106.057C105.22 103.577 103.753 101.739 101.595 101.739C100.3 101.739 100.3 102.015 102.026 104.955Z" fill="white"/>
<path d="M87.5236 104.219C87.8689 105.138 88.3868 106.792 88.6458 107.986C89.0774 110.375 90.8038 110.191 91.2354 107.802C91.5807 106.149 89.1637 102.658 87.6962 102.658C87.2646 102.658 87.1783 103.393 87.5236 104.219Z" fill="white"/>
<path d="M322.056 107.711C322.487 111.018 322.487 114.141 321.883 116.438C320.847 120.388 316.186 125.349 312.56 126.084C311.266 126.452 307.64 127.738 304.446 129.024C300.13 130.769 297.713 131.229 294.778 130.953C290.549 130.402 284.593 127.554 281.571 124.431L279.586 122.593V125.441C279.586 128.84 284.334 133.434 291.671 137.017C298.576 140.507 304.36 140.232 312.042 136.282C315.323 134.628 319.466 132.515 321.279 131.596C326.026 129.208 328.271 125.441 328.616 118.735C328.875 113.774 328.616 112.672 326.026 108.262C322.142 101.372 321.106 101.28 322.056 107.711Z" fill="white"/>
<path d="M80.1914 105.322C80.1914 105.781 80.7957 106.608 81.4862 107.251C82.1768 107.894 82.781 109.18 82.781 110.099C82.781 112.028 85.2843 112.58 85.457 110.65C85.7159 108.262 85.198 106.792 83.8169 105.598C82.2631 104.311 80.1914 104.128 80.1914 105.322Z" fill="white"/>
<path d="M71.2178 108.997C70.9588 109.456 71.7357 110.099 72.9442 110.375C74.3253 110.742 75.5338 112.12 76.3107 113.958L77.4329 116.897L78.555 114.325C79.4182 112.212 79.4182 111.569 78.0371 110.007C76.4833 108.17 72.081 107.527 71.2178 108.997Z" fill="white"/>
<path d="M137.163 116.071C133.71 121.307 133.796 121.675 142.342 128.197C150.801 134.628 155.722 136.098 166.943 135.455C175.921 134.904 185.416 132.515 184.121 131.137C183.69 130.678 178.079 129.116 171.605 127.646C158.139 124.431 150.542 121.032 144.759 115.611C142.601 113.59 140.616 111.845 140.443 111.845C140.184 111.845 138.717 113.774 137.163 116.071Z" fill="white"/>
<path d="M265.18 119.837C264.662 123.328 263.971 126.911 263.626 127.921C263.108 129.208 263.194 129.483 263.885 128.84C265.525 127.278 268.028 115.703 266.992 114.601C266.388 113.958 265.784 115.519 265.18 119.837Z" fill="white"/>
<path d="M64.1314 116.714L61.8008 118.919L66.4621 118.827C69.0517 118.827 71.814 119.102 72.6772 119.562C73.7993 120.113 74.1446 119.929 74.1446 118.551C74.1446 114.233 68.1022 113.131 64.1314 116.714Z" fill="white"/>
<path d="M259.396 123.328C259.396 132.147 260.346 136.373 260.605 129.116C261.036 118.551 260.95 115.244 260.173 114.876C259.655 114.692 259.31 117.908 259.396 123.328Z" fill="white"/>
<path d="M251.105 116.346C251.105 116.897 251.71 118.643 252.4 120.297C253.091 121.95 254.04 124.982 254.558 127.003C254.99 129.024 255.939 131.504 256.63 132.515C257.752 134.169 257.838 133.985 257.148 130.678C254.299 116.806 254.127 115.979 252.659 115.703C251.796 115.519 251.105 115.795 251.105 116.346Z" fill="white"/>
<path d="M271.821 118.092C271.821 119.562 270.44 123.145 268.714 126.176C265.865 131.229 265.779 131.413 268.023 129.3C271.907 125.441 275.274 115.52 272.684 115.52C272.253 115.52 271.821 116.714 271.821 118.092Z" fill="white"/>
<path d="M242.469 118.276C242.469 121.399 248.856 131.229 252.05 132.974C253.259 133.709 253 132.974 251.101 129.851C249.633 127.554 247.648 123.88 246.698 121.583C245.145 117.816 242.469 115.795 242.469 118.276Z" fill="white"/>
<path d="M234.709 120.297C234.709 122.134 240.665 130.861 242.996 132.515C244.118 133.25 246.103 134.352 247.398 134.904C249.297 135.639 249.038 135.179 245.758 131.872C243.6 129.667 240.838 125.992 239.457 123.512C237.299 119.47 234.709 117.724 234.709 120.297Z" fill="white"/>
<path d="M215.361 121.95C210.786 123.42 207.074 128.381 205.779 134.72C205.175 137.66 205.434 138.211 208.628 141.151C212.081 144.458 212.081 144.458 211.39 149.051C209.664 159.892 210.959 173.396 215.016 186.258C218.987 199.028 228.654 213.543 237.286 219.698C241.085 222.362 241.085 221.26 237.114 216.758C232.798 211.797 228.827 205.918 226.151 200.314C223.993 195.628 223.907 195.445 225.892 195.445C226.842 195.445 228.482 197.833 230.726 202.886C234.697 211.43 241.516 219.514 246.35 221.168C248.077 221.811 249.63 222.086 249.803 221.903C249.976 221.719 248.681 219.973 247.041 217.952C242.984 213.083 238.84 206.285 236.423 200.13C234.438 195.353 234.438 195.169 235.992 193.975C236.855 193.24 237.891 192.689 238.15 192.689C238.409 192.689 239.531 195.72 240.48 199.303C242.725 207.296 246.609 213.91 250.753 216.666C252.565 217.86 256.277 218.963 260.42 219.514C264.564 219.973 269.139 221.351 272.505 223.097C275.44 224.567 278.807 225.761 280.015 225.761C282.001 225.761 281.655 225.21 276.735 219.882C272.246 215.013 270.606 213.818 266.204 212.532C258.262 210.235 255.673 208.674 253.342 204.907C250.666 200.406 246.436 187.636 247.041 185.799C247.99 183.318 249.026 184.329 250.494 189.29C252.393 195.628 256.536 202.243 259.989 204.448C261.543 205.458 264.909 206.744 267.499 207.388C274.145 209.041 275.785 210.052 282.605 217.401C289.856 225.21 291.582 225.577 299.696 220.8C302.631 219.055 307.034 217.126 309.364 216.482C311.781 215.931 314.975 214.645 316.529 213.635C321.622 210.327 327.578 198.66 328.527 189.841C329.132 184.512 327.923 183.869 326.283 188.738C325.679 190.668 323.78 195.261 322.14 198.936C318.773 206.653 315.752 209.225 310.141 209.225C308.156 209.225 303.926 210.235 300.818 211.522C292.273 214.921 291.409 214.737 285.108 207.847C282.087 204.54 279.152 201.875 278.548 201.875C277.943 201.875 275.009 200.681 272.074 199.119C267.758 197.006 266.118 195.537 264.046 192.046C261.456 187.636 258.435 180.103 257.917 176.428C257.313 172.845 259.126 174.039 260.42 178.174C263.01 186.442 267.153 190.759 275.009 193.607C278.72 194.985 281.914 197.098 285.54 200.497C292.014 206.653 294.949 207.296 303.322 204.54C311.436 201.875 315.32 199.762 318.6 195.812C321.622 192.321 328.182 179.827 327.491 179C327.233 178.725 323.607 182.308 319.464 186.809C313.421 193.607 311.263 195.353 308.242 196.088C303.753 197.282 299.61 196.363 295.898 193.332C294.258 192.046 289.251 189.198 284.763 186.901C274.663 181.94 269.743 176.428 267.067 166.966C266.549 165.036 266.981 165.312 269.743 168.619C271.987 171.192 275.785 173.856 281.051 176.612C285.453 178.817 290.46 182.032 292.273 183.777C300.559 191.586 302.976 191.77 311.781 185.431C315.234 183.043 320.068 179.827 322.485 178.449C327.578 175.601 329.218 173.396 330.081 168.527C330.944 163.567 329.736 162.556 327.923 166.782C326.197 170.916 323.78 172.937 319.291 173.856C317.651 174.223 314.112 175.693 311.522 177.163C305.48 180.562 303.926 180.47 299.783 176.979C297.884 175.417 292.877 172.294 288.475 170.181C280.447 166.139 272.419 159.432 271.297 155.758C270.606 153.369 269.225 154.012 267.326 157.779C266.031 160.351 265.772 160.627 265.772 158.973C265.772 157.044 265.6 157.044 263.442 158.33C262.061 158.973 259.557 159.616 257.744 159.616C255.932 159.616 253.169 160.259 251.529 160.902C249.889 161.637 248.508 162.097 248.508 161.913C248.508 161.086 260.161 155.207 263.01 154.563C266.031 153.92 266.463 152.634 264.564 149.878C263.355 148.133 263.269 148.225 259.385 150.246C257.14 151.348 253.601 154.012 251.529 156.033C249.371 158.146 247.645 159.616 247.645 159.249C247.645 157.136 250.666 151.807 253.774 148.133C257.399 143.999 257.486 143.723 255.845 142.529C254.982 141.794 253.342 141.243 252.306 141.243C250.235 141.243 248.077 145.285 246.35 152.267C245.573 155.666 244.969 156.401 243.243 156.676C242.12 156.768 240.653 156.493 239.962 156.033C237.891 154.563 240.221 148.225 244.71 143.356C246.782 140.967 248.508 138.946 248.508 138.854C248.508 138.67 247.127 138.303 245.487 137.935C240.221 136.925 236.423 140.875 234.265 149.511C233.575 152.175 232.97 154.472 232.798 154.655C232.453 154.931 225.892 153.277 225.374 152.726C225.288 152.634 225.806 150.981 226.496 149.143C228.223 144.734 234.006 138.119 237.286 136.649C241.603 134.72 240.049 132.974 234.179 132.974C228.395 132.974 223.648 137.292 220.281 145.652L218.728 149.511L215.965 147.49C214.412 146.295 213.117 144.734 213.117 143.907C213.117 141.518 218.382 133.801 221.921 131.137C223.734 129.667 227.187 128.014 229.69 127.462L234.093 126.268L232.021 124.614C228.137 121.491 220.627 120.297 215.361 121.95ZM221.921 151.348C223.82 152.359 223.907 152.726 223.993 166.598C224.079 180.654 224.079 180.746 222.267 180.195C219.763 179.368 219.85 179.46 219.073 174.591C217.864 166.966 218.296 150.429 219.677 150.429C219.85 150.429 220.799 150.889 221.921 151.348ZM237.459 167.609C237.286 174.131 236.682 180.103 236.251 180.93C235.301 182.951 233.316 183.043 232.625 181.113C231.935 179.276 231.935 169.997 232.712 162.097C233.229 156.125 233.316 155.941 235.56 155.941H237.891L237.459 167.609ZM264.046 164.026C264.046 164.118 263.442 165.312 262.665 166.506C261.025 169.17 258.953 169.354 253.428 167.333C249.371 165.863 248.422 164.761 250.494 163.842C251.529 163.383 264.046 163.475 264.046 164.026ZM251.616 171.651C256.104 174.407 256.277 174.683 255.155 176.52C253.256 179.552 251.529 179.276 247.731 175.693C244.796 172.845 244.365 172.018 245.142 170.548C245.573 169.63 246.178 168.803 246.436 168.803C246.609 168.803 248.94 170.089 251.616 171.651ZM244.71 180.93L246.178 185.707L243.674 187.82C239.962 190.943 239.186 190.484 238.495 184.788C237.977 180.286 238.15 179.46 239.876 177.53C240.998 176.244 242.12 175.509 242.552 175.693C242.897 175.969 243.847 178.357 244.71 180.93ZM227.446 182.675C227.705 183.226 228.913 183.41 230.036 183.134C231.848 182.583 232.107 182.859 232.107 185.064C232.107 186.533 232.453 189.014 232.884 190.668C233.747 193.883 233.575 194.159 229.949 194.71C228.137 194.985 226.842 192.046 225.633 184.972C225.029 181.756 226.065 180.378 227.446 182.675ZM221.749 189.014L223.389 194.618L221.058 194.342C219.763 194.159 218.728 193.515 218.814 192.872C218.9 192.321 218.987 189.657 219.073 186.993C219.073 184.421 219.418 182.491 219.677 182.767C219.936 183.043 220.886 185.89 221.749 189.014Z" fill="white"/>
<path d="M275.011 124.247C273.889 126.084 271.645 128.565 270.005 129.851C268.451 131.045 267.588 132.056 268.106 132.056C270.35 132.056 278.723 122.593 277.601 121.399C277.342 121.123 276.22 122.41 275.011 124.247Z" fill="white"/>
<path d="M63.1889 123.328C61.2035 124.798 58.7866 131.596 59.8224 132.699C60.0814 133.066 61.4625 132.147 62.9299 130.678C64.3111 129.3 67.1597 127.646 69.3177 127.095C73.2021 125.992 73.2021 125.992 71.9073 123.971C70.3535 121.583 65.9512 121.215 63.1889 123.328Z" fill="white"/>
<path d="M123.606 124.063C118.254 125.074 118.081 125.809 121.102 132.515C125.159 141.61 139.575 153.094 147.43 153.461C150.797 153.645 151.056 153.461 153.559 148.868L156.148 143.999L153.818 143.448C146.394 141.61 136.208 133.066 133.101 126.084C131.547 122.594 131.115 122.502 123.606 124.063Z" fill="white"/>
<path d="M103.49 127.738L99.6055 128.84L99.6918 134.353C99.8644 149.97 114.021 164.761 129.731 165.863C139.399 166.506 141.557 165.771 144.665 161.086L147.341 157.044L141.989 156.676C138.104 156.401 134.911 155.482 130.767 153.277C123.948 149.786 120.84 145.652 115.834 134.169C112.208 125.625 111.777 125.441 103.49 127.738Z" fill="white"/>
<path d="M328.62 131.78C326.807 135.639 325.512 136.741 318.952 140.691C312.823 144.274 310.406 145.193 306.09 145.56C301.17 146.02 300.22 145.744 293.746 142.253C289.948 140.232 284.941 136.833 282.783 134.72L278.726 130.953L277.863 133.434C277.432 134.72 277 136.374 277 137.017C277 138.578 288.999 147.765 296.336 151.807C304.364 156.217 311.01 155.942 314.981 150.889C315.585 150.062 318.779 147.765 322.059 145.744C325.34 143.631 328.447 140.967 329.138 139.589C330.26 137.109 331.9 127.462 331.123 127.462C330.95 127.462 329.828 129.392 328.62 131.78Z" fill="white"/>
<path d="M273.551 131.688L271.393 133.066L273.551 132.423C274.759 132.148 276.054 131.505 276.572 131.045C277.867 129.759 275.968 130.127 273.551 131.688Z" fill="white"/>
<path d="M66.1195 132.974C63.1846 135.455 62.5804 138.762 64.3068 142.62C65.7742 146.02 68.1049 146.938 68.1049 144.182C68.1049 141.426 71.2124 137.016 74.061 135.73C76.6506 134.628 76.7369 134.444 75.3558 132.882C73.4568 130.586 68.8818 130.678 66.1195 132.974Z" fill="white"/>
<path d="M87.0979 132.607C83.1271 134.444 80.4512 137.2 78.2932 141.61C76.7394 144.825 76.6531 145.652 77.6026 148.959C79.2427 154.655 84.163 162.005 92.2771 170.732C100.65 179.643 105.57 182.583 113.426 183.226C119.123 183.777 130.258 181.205 136.56 177.99C138.545 176.979 140.185 176.152 140.358 176.152C140.53 176.152 140.617 177.806 140.617 179.735C140.617 183.777 140.876 183.686 129.827 185.339C126.028 185.89 121.626 186.809 120.159 187.268C113.857 189.381 112.045 196.731 116.102 203.07C118.691 207.112 119.468 207.112 118.087 202.978C117.051 199.762 118.001 197.006 120.763 195.445C121.712 194.893 125.942 194.067 130.086 193.515C134.229 193.056 138.89 192.229 140.444 191.678C142.947 190.851 143.465 190.943 144.501 192.413C145.192 193.332 145.796 194.342 145.796 194.618C145.796 195.628 142.343 196.271 134.833 196.914C130.862 197.282 127.669 197.741 127.669 197.925C127.669 198.109 128.273 199.303 129.05 200.497C130.69 203.162 133.797 203.345 144.846 201.875C150.457 201.049 151.493 201.14 152.96 202.518C154.601 204.08 154.514 204.172 152.529 204.723C151.493 205.091 146.745 205.366 142.17 205.458C137.509 205.55 133.711 205.918 133.711 206.377C133.711 206.836 134.315 207.939 135.092 208.674C136.214 209.96 137.941 210.052 145.882 209.592C152.011 209.133 155.291 209.225 155.291 209.868C155.291 211.062 149.162 211.981 141.825 211.981C136.991 211.981 136.301 212.165 136.301 213.726C136.301 215.104 137.077 215.564 140.444 215.839C142.688 216.023 146.832 215.839 149.594 215.472C152.443 215.012 154.86 214.921 155.118 215.104C155.291 215.38 153.996 216.207 152.184 217.034C149.162 218.412 139.926 219.147 136.301 218.228C135.524 218.044 135.006 218.595 135.006 219.79C135.006 221.443 135.61 221.627 141.048 221.627C144.415 221.627 148.558 221.26 150.371 220.892C152.529 220.433 153.565 220.433 153.219 221.076C152.615 222.086 146.055 223.648 138.718 224.383C135.178 224.842 133.711 225.394 133.711 226.312C133.711 228.058 138.545 227.966 145.71 226.22C151.234 224.75 152.443 224.842 151.493 226.588C150.889 227.598 140.012 230.354 136.387 230.354C133.193 230.354 132.848 231.732 135.869 232.559C137.854 233.11 147.609 231.365 151.234 229.895C152.184 229.436 152.701 229.711 152.701 230.538C152.701 231.457 150.543 232.467 146.227 233.57C140.53 235.132 139.926 235.499 140.962 236.693C142.084 237.888 143.034 237.796 148.472 236.05C154.946 234.121 157.967 234.305 154.342 236.418C153.219 237.061 151.838 237.612 151.234 237.704C150.716 237.704 149.162 238.163 147.781 238.714C145.71 239.541 145.537 239.817 146.832 240.552C148.558 241.562 158.226 238.071 157.363 236.693C157.104 236.234 157.794 235.499 158.917 235.04C160.729 234.213 160.729 234.121 158.14 234.121C156.672 234.029 155.118 233.57 154.86 233.11C154.514 232.559 156.413 232.192 159.952 232.192C163.06 232.192 165.822 231.824 166.081 231.273C166.34 230.814 166.081 230.63 165.391 230.906C163.837 231.549 154.342 229.711 153.306 228.609C152.874 228.15 155.205 228.058 158.658 228.333C164.786 228.793 172.037 227.323 173.159 225.485C173.505 224.934 172.901 224.75 171.606 225.118C164.009 227.323 153.565 226.404 153.565 223.464C153.565 222.454 153.996 222.362 155.809 223.005C161.075 225.21 172.296 223.372 176.008 219.79C177.389 218.412 178.252 218.412 182.05 219.238C184.467 219.79 190.424 220.249 195.344 220.249C200.609 220.249 205.875 220.8 208.378 221.627C213.558 223.281 214.248 222.821 210.45 220.341C207.601 218.503 204.666 217.677 193.272 215.747C190.165 215.196 186.539 214.553 185.072 214.278C182.568 213.726 182.568 213.726 184.209 215.196C185.849 216.666 185.59 216.666 180.065 216.391C174.8 216.115 172.642 216.758 175.317 217.677C177.821 218.595 171.778 220.616 165.65 220.984C158.312 221.351 154.169 220.249 155.032 217.86C155.464 216.666 156.241 216.482 159.348 217.034C161.42 217.309 165.218 217.309 167.894 216.942C172.037 216.391 172.469 216.207 171.088 215.104C169.707 214.002 169.966 213.818 173.418 213.726C175.576 213.634 178.511 213.634 179.892 213.726L182.482 213.91L179.892 211.613C176.699 208.765 177.648 208.674 184.209 211.062C187.057 212.073 192.754 213.359 196.898 213.818C201.127 214.369 206.479 215.564 208.896 216.482C211.831 217.769 212.953 217.86 212.263 217.034C210.623 214.921 204.321 212.256 197.588 210.787C194.049 209.96 188.093 208.122 184.467 206.652C173.159 201.967 166.858 201.875 172.21 206.377L174.541 208.306H170.656C168.498 208.306 165.563 208.582 164.182 208.857C162.197 209.225 160.988 208.857 159.089 207.112L156.586 204.815L160.47 204.264C162.628 203.988 165.477 203.621 166.858 203.529L169.361 203.253L166.081 200.773L162.801 198.293L165.132 197.649C169.189 196.639 174.454 197.925 181.36 201.783C184.985 203.805 191.546 206.561 196.034 207.847C200.437 209.225 206.566 211.705 209.673 213.451L215.284 216.574L210.882 212.165C207.429 208.674 204.666 207.02 197.933 204.264C193.186 202.427 186.453 198.844 182.827 196.271C179.202 193.791 174.972 191.311 173.332 190.851C169.62 189.657 162.628 189.657 158.917 190.759C156.586 191.494 155.982 191.402 154.86 189.657C154.169 188.555 153.565 187.36 153.565 187.085C153.565 185.982 161.851 184.42 167.203 184.42C173.591 184.512 177.562 186.533 184.899 193.424C188.438 196.823 192.668 199.762 195.689 200.957C202.077 203.713 208.81 207.663 211.658 210.511C215.025 213.818 214.507 212.073 210.882 207.479C209.155 205.366 204.408 201.14 200.264 198.201C196.207 195.261 190.165 189.933 186.798 186.258C178.684 177.347 171.865 173.856 163.492 173.948C160.211 174.039 155.809 174.774 153.824 175.509L150.198 176.979L149.68 174.223C148.99 171.008 150.285 169.538 155.291 167.976C161.679 165.955 165.391 165.863 170.397 167.425C175.663 168.987 180.497 173.488 190.51 185.982C193.013 189.198 196.898 193.056 199.142 194.71C204.58 198.568 208.551 202.335 212.004 206.652C215.025 210.511 215.888 209.96 213.385 205.734C212.608 204.356 208.206 199.119 203.631 194.067C198.797 188.646 193.531 181.664 190.855 176.887C184.726 166.231 179.806 160.535 173.677 157.319C169.448 155.023 167.462 154.472 160.816 154.288L152.96 153.92L151.579 157.595C150.802 159.616 149.939 163.291 149.594 165.863C149.076 170.089 148.817 170.457 145.278 172.386C143.12 173.396 141.221 174.315 140.962 174.315C140.617 174.315 140.703 172.845 140.962 171.1C141.652 167.333 141.652 167.425 135.437 169.722C129.568 171.926 118.864 172.202 114.461 170.181C110.232 168.344 106.52 164.761 100.823 157.136C94.8667 149.235 91.6728 142.437 90.8096 136.006L90.1191 131.321L87.0979 132.607ZM151.407 183.134L152.529 186.074L147.954 187.911L143.293 189.657L142.429 186.901C141.911 185.431 141.48 183.777 141.48 183.41C141.48 182.032 149.68 178.082 150.026 179.184C150.198 179.827 150.802 181.573 151.407 183.134ZM159.089 195.353L161.42 197.925L157.535 199.027C151.838 200.497 150.457 200.314 148.817 197.649C147.091 194.893 147.091 194.985 150.975 193.791C155.723 192.321 156.5 192.505 159.089 195.353ZM164.873 211.981L166.944 213.726L161.593 213.818C157.449 213.818 156.154 213.543 156.154 212.532C156.154 209.776 162.024 209.317 164.873 211.981Z" fill="white"/>
<path d="M191.292 135.822C195.78 140.967 198.111 147.857 200.528 163.015C202.945 178.816 204.671 183.41 212.958 196.823C218.396 205.458 227.115 216.758 228.927 217.401C229.532 217.585 228.927 216.574 227.719 215.104C224.007 210.786 216.583 198.384 213.994 192.321C209.764 182.491 208.728 176.703 208.038 160.075C207.52 148.132 207.002 143.723 205.88 141.426C203.808 137.108 198.456 133.709 193.018 133.158L188.529 132.791L191.292 135.822Z" fill="white"/>
<path d="M269.054 133.618C269.658 133.893 270.435 133.801 270.694 133.526C271.04 133.25 270.522 132.974 269.572 133.066C268.623 133.066 268.364 133.342 269.054 133.618Z" fill="white"/>
<path d="M270.956 135.731C269.229 136.282 269.143 136.466 270.524 136.466C271.474 136.466 273.027 136.19 273.977 135.731C276.135 134.72 273.891 134.72 270.956 135.731Z" fill="white"/>
<path d="M165.21 137.752C162.621 139.221 159.6 142.345 159.6 143.447C159.6 143.999 162.189 145.009 165.469 145.652C177.468 148.133 184.287 154.839 192.315 172.11C197.753 183.961 198.875 185.89 203.882 191.77C205.436 193.515 208.716 197.649 211.306 200.957C217.78 209.133 217.866 209.133 216.226 205.734C215.363 203.988 212.255 199.027 209.148 194.71C202.242 184.788 199.221 178.265 196.372 166.506C190.934 144.825 184.287 136.649 172.03 136.649C169.268 136.649 166.16 137.2 165.21 137.752Z" fill="white"/>
<path d="M272.941 145.469C271.818 147.857 271.732 149.051 272.336 150.246C274.063 153.186 286.925 163.291 293.744 166.966C302.721 171.835 306.001 171.835 312.907 167.058C315.669 165.128 319.899 162.372 322.23 160.994C325.337 159.157 326.805 157.503 328.099 154.472C328.963 152.175 329.653 149.419 329.481 148.317C329.222 146.479 329.049 146.663 327.323 149.603C325.337 152.91 324.215 153.737 313.77 158.606C306.347 162.189 302.721 162.189 296.42 158.698C291.327 155.85 282.436 148.776 278.81 144.55C275.962 141.335 274.667 141.518 272.941 145.469Z" fill="white"/>
<path d="M63.9641 154.931C61.4608 159.616 61.4608 166.598 63.7914 171.559C65.7768 175.785 70.0065 179 76.4806 181.205C78.9839 182.032 83.5588 184.512 86.6664 186.717C90.7235 189.565 93.9173 190.943 98.0607 191.77C105.398 193.24 108.937 196.455 110.405 202.794C111.958 209.592 113.598 208.674 113.08 201.416C112.563 195.261 108.764 190.668 99.7871 185.615C95.4711 183.134 92.9678 181.021 90.2919 177.163C88.1338 174.131 84.3357 170.457 81.0556 168.16C74.4952 163.658 70.2655 158.789 68.9707 154.472C67.6759 150.429 66.2947 150.521 63.9641 154.931Z" fill="white"/>
<path d="M62.0664 181.94C62.0664 186.442 65.4329 192.781 68.9721 194.71C70.6121 195.629 73.7197 196.364 75.964 196.364C78.122 196.364 82.1791 197.19 84.9414 198.201C87.7036 199.212 90.6385 199.855 91.4154 199.579C92.1923 199.303 95.0409 199.028 97.8894 199.028C103.155 198.844 104.363 199.671 107.471 205.183C109.284 208.398 109.802 205.642 108.248 201.325C106.349 195.996 102.896 194.159 96.2494 194.986C92.3649 195.537 91.2428 195.261 86.2362 192.413C83.1286 190.668 78.122 188.463 75.1008 187.544C71.1301 186.442 68.6268 184.972 66.1235 182.4C64.2244 180.47 62.498 178.909 62.3254 178.909C62.239 178.909 62.0664 180.287 62.0664 181.94Z" fill="white"/>
<path d="M331.904 189.933C331.127 194.618 328.019 202.427 325.257 206.561C322.322 210.97 324.048 210.787 328.278 206.377C332.68 201.6 334.925 194.159 333.371 188.83L332.508 185.799L331.904 189.933Z" fill="white"/>
<path d="M338.807 191.219C337.771 196.915 334.491 203.897 331.038 207.755C329.311 209.776 328.017 211.522 328.189 211.705C329.052 212.532 335.872 206.101 337.685 202.61C340.36 197.558 340.965 194.893 340.102 190.851L339.497 187.636L338.807 191.219Z" fill="white"/>
<path d="M344.166 192.413C343.561 198.844 340.281 205.366 335.793 208.949C331.563 212.44 331.908 212.716 337.087 210.051C343.13 207.02 346.755 198.384 345.288 190.851C344.684 187.728 344.684 187.728 344.166 192.413Z" fill="white"/>
<path d="M350.026 194.067C349.163 198.201 347.35 202.426 345.365 204.907C344.675 205.734 344.329 206.744 344.675 207.204C345.71 208.214 350.285 201.875 350.89 198.66C351.149 197.006 351.235 194.526 351.062 193.056C350.717 190.576 350.631 190.576 350.026 194.067Z" fill="white"/>
<path d="M355.563 193.607C355.563 196.914 353.578 202.426 351.42 204.907C350.038 206.56 350.038 206.652 351.679 206.377C355.131 205.642 359.102 193.056 356.426 191.31C355.908 190.943 355.563 191.953 355.563 193.607Z" fill="white"/>
<path d="M64.6465 198.109C64.6465 200.865 69.3941 206.193 73.0196 207.479C78.1988 209.317 89.3342 208.122 94.686 205.183C97.2757 203.805 99.1747 202.518 99.0021 202.243C98.7431 202.059 96.4988 202.335 93.8228 202.886C89.7658 203.805 88.212 203.621 82.6875 201.967C79.062 200.865 74.5733 200.038 72.6743 200.038C70.43 200.038 68.3583 199.303 66.8908 198.109L64.6465 196.271V198.109Z" fill="white"/>
<path d="M121.021 197.006C119.812 197.466 119.553 201.6 120.416 204.08C120.675 204.907 121.711 205.55 122.661 205.55C123.956 205.55 124.215 205.183 123.783 203.897C122.402 200.406 122.316 199.028 123.351 197.741C124.215 196.639 124.215 196.363 123.265 196.455C122.575 196.455 121.539 196.731 121.021 197.006Z" fill="white"/>
<path d="M360.559 199.762C359.696 201.692 358.228 204.264 357.192 205.458C355.207 207.755 355.552 209.225 357.71 207.387C359.696 205.642 362.631 199.303 362.285 197.558C362.113 196.731 361.422 197.649 360.559 199.762Z" fill="white"/>
<path d="M124.215 200.589C124.215 202.702 127.236 206.193 127.927 204.907C128.186 204.448 127.495 202.886 126.373 201.324C124.474 198.935 124.301 198.844 124.215 200.589Z" fill="white"/>
<path d="M103.668 203.621C103.841 204.907 104.445 206.009 105.049 206.285C106.516 206.744 106.344 205.366 104.79 203.161C103.495 201.508 103.495 201.508 103.668 203.621Z" fill="white"/>
<path d="M361.856 207.112C360.388 208.766 359.439 210.144 359.784 210.144C360.561 210.144 365.481 204.723 364.963 204.356C364.791 204.264 363.409 205.458 361.856 207.112Z" fill="white"/>
<path d="M62.9238 207.204C62.9238 208.49 65.5998 211.889 68.1031 213.818C74.0592 218.32 87.5252 217.861 93.9992 212.808C98.0563 209.684 98.6605 207.571 94.8624 209.684C93.0497 210.695 89.5106 211.062 81.3101 211.062C71.2106 211.062 69.9158 210.879 66.6356 208.766C64.5639 207.571 62.9238 206.837 62.9238 207.204Z" fill="white"/>
<path d="M59.8131 213.726C61.5395 217.217 65.5966 220.708 69.481 222.086C73.2791 223.464 81.048 222.821 85.364 220.984C88.2989 219.606 88.2126 219.606 81.7385 220.065C73.2791 220.617 68.7905 219.33 63.007 214.645C58.6046 211.062 58.6046 211.062 59.8131 213.726Z" fill="white"/>
<path d="M55.2389 220.249C55.7568 221.719 57.3969 224.107 58.8643 225.394C61.2813 227.598 62.0582 227.782 68.1869 227.415C71.8987 227.231 75.3516 226.68 75.7832 226.22C76.3874 225.577 75.0063 225.394 71.8124 225.669C65.1657 226.037 60.8497 224.567 58.0011 220.708C55.0662 216.758 54.1167 216.574 55.2389 220.249Z" fill="white"/>
<path d="M49.9805 221.811C49.9805 224.016 54.4691 229.16 57.3177 230.355C58.6125 230.906 61.8064 231.181 64.4823 231.181L69.4026 231.09L65.0866 230.355C59.4757 229.528 56.1092 227.599 52.6564 223.464C50.671 220.984 49.9805 220.617 49.9805 221.811Z" fill="white"/>
<path d="M254.214 224.567C255.595 225.669 257.667 227.047 258.875 227.507C260.084 227.966 264.313 229.62 268.284 231.181C272.341 232.743 275.794 233.846 275.967 233.57C276.657 232.835 272.6 227.69 269.665 225.761C267.68 224.475 264.486 223.648 259.22 223.189L251.797 222.454L254.214 224.567Z" fill="white"/>
<path d="M189.812 223.74C189.812 223.924 190.158 224.751 190.589 225.669C191.366 227.139 192.488 227.231 200.775 226.864C205.868 226.68 210.616 226.129 211.22 225.853C212.687 225.026 199.394 223.097 193.956 223.281C191.625 223.373 189.812 223.556 189.812 223.74Z" fill="white"/>
<path d="M47.3906 227.415C47.3906 228.885 50.2392 232.284 52.5699 233.57C55.2458 235.04 61.6335 235.407 62.4104 234.213C62.583 233.845 61.0293 233.386 58.8713 233.294C54.9005 233.111 52.2246 231.824 49.0307 228.425C48.1675 227.507 47.3906 226.955 47.3906 227.415Z" fill="white"/>
<path d="M195.859 229.344C193.873 229.712 192.751 230.447 192.578 231.641C192.233 233.203 192.665 233.294 197.758 232.651C204.663 231.825 209.67 230.722 210.619 229.712C211.396 228.885 200.347 228.609 195.859 229.344Z" fill="white"/>
<path d="M216.582 229.712C216.582 230.355 218.999 231.733 222.02 232.743C224.955 233.754 228.149 234.948 229.099 235.407C232.638 237.061 228.494 233.019 224.178 230.722C219.69 228.333 216.582 227.874 216.582 229.712Z" fill="white"/>
<path d="M261.037 234.764C265.353 237.153 269.928 239.909 271.309 240.919L273.812 242.665L272.863 240.736C271.136 237.428 265.612 233.111 261.123 231.733C253.182 229.16 253.182 230.355 261.037 234.764Z" fill="white"/>
<path d="M202.245 233.57C195.339 234.856 192.404 236.509 192.404 238.898C192.404 240.552 192.491 240.552 195.253 238.806C196.72 237.796 200.173 236.509 202.849 235.958C205.525 235.315 208.46 234.305 209.323 233.57C211.395 231.916 210.532 231.916 202.245 233.57Z" fill="white"/>
<path d="M216.582 234.397C216.582 235.315 217.877 235.958 220.725 236.418C222.97 236.785 225.732 237.428 226.854 237.888C230.566 239.357 229.875 237.796 225.991 235.958C220.207 233.294 216.582 232.651 216.582 234.397Z" fill="white"/>
<path d="M47.3021 236.418C49.978 238.439 54.3803 239.449 56.452 238.531C57.7468 237.979 57.3152 237.796 54.7256 237.704C52.8266 237.704 50.3233 237.061 49.1148 236.326C46.1799 234.488 44.7988 234.58 47.3021 236.418Z" fill="white"/>
<path d="M205.357 236.694C196.897 239.541 193.445 242.114 195.862 243.675C196.897 244.41 211.399 236.877 211.399 235.683C211.399 234.764 211.054 234.764 205.357 236.694Z" fill="white"/>
<path d="M253.701 237.428C253.701 237.888 255.514 238.99 257.845 239.909C260.089 240.828 263.714 242.849 266.045 244.227C268.289 245.697 270.102 246.523 270.102 246.064C270.102 244.41 262.247 237.888 259.657 237.337C256.032 236.602 253.701 236.602 253.701 237.428Z" fill="white"/>
<path d="M205.179 241.195C199.395 244.594 198.014 245.972 200.604 245.972C203.539 245.972 212.257 240.368 212.257 238.439C212.257 237.244 211.394 237.612 205.179 241.195Z" fill="white"/>
<path d="M216.843 238.99C217.188 239.909 217.447 240.644 217.447 240.736C217.447 240.827 220.037 240.736 223.231 240.644C229.964 240.276 229.101 238.99 221.332 238.071C216.757 237.52 216.325 237.612 216.843 238.99Z" fill="white"/>
<path d="M154.429 241.379C151.321 242.665 150.89 243.216 152.098 243.675C153.911 244.502 159.781 242.297 160.298 240.644C160.73 239.174 159.176 239.358 154.429 241.379Z" fill="white"/>
<path d="M208.202 244.043C203.282 247.534 202.936 248.269 206.821 247.442C210.101 246.615 214.676 242.665 213.554 241.654C213.036 241.103 210.964 242.022 208.202 244.043Z" fill="white"/>
<path d="M158.736 244.41C155.802 245.88 155.284 246.431 156.578 246.707C158.909 247.074 164.952 244.318 164.347 243.216C163.657 242.022 163.311 242.113 158.736 244.41Z" fill="white"/>
<path d="M220.638 242.94C218.653 243.308 218.394 243.675 218.826 245.513C219.257 247.258 218.739 248.085 216.236 249.831C210.884 253.505 213.129 254.24 219.43 250.841C221.156 249.922 221.674 249.096 221.329 247.809C220.897 246.523 221.502 245.88 224.091 245.053C230.652 242.757 228.753 241.654 220.638 242.94Z" fill="white"/>
<path d="M255.416 243.491C255.416 243.767 257.488 245.237 259.991 246.799C262.408 248.36 265.429 250.382 266.551 251.208L268.623 252.77L267.242 250.106C265.257 245.972 262.84 244.043 258.955 243.491C256.97 243.216 255.416 243.216 255.416 243.491Z" fill="white"/>
<path d="M211.051 247.075C208.72 248.728 207.253 250.198 207.857 250.382C209.324 250.933 218.474 246.156 217.87 245.054C217.007 243.584 215.539 243.951 211.051 247.075Z" fill="white"/>
<path d="M225.035 246.523C223.654 247.258 222.618 248.636 222.618 249.647C222.618 250.657 222.273 251.484 221.927 251.484C221.582 251.484 220.546 252.77 219.683 254.424L218.043 257.364L221.582 254.24C225.898 250.565 227.193 251.117 223.999 255.159C220.805 259.293 221.237 260.395 224.776 257.088C228.488 253.597 231.768 253.046 228.919 256.261C227.97 257.455 226.675 259.385 226.071 260.671C225.035 262.692 225.294 262.6 228.401 259.752C230.387 258.007 231.854 256.077 231.854 255.618C231.768 255.067 232.631 253.321 233.753 251.668C236.343 247.717 235.652 247.074 232.545 250.565C230.387 252.954 227.797 254.24 227.797 252.862C227.797 252.586 229.265 250.933 231.077 249.095L234.271 245.788L230.042 248.177C224.517 251.3 223.222 251.117 226.934 247.809C230.042 244.87 229.006 244.226 225.035 246.523Z" fill="white"/>
<path d="M162.629 247.901C160.73 248.82 159.867 249.646 160.73 249.646C162.456 249.646 168.24 247.258 168.24 246.523C168.24 245.604 166.168 246.064 162.629 247.901Z" fill="white"/>
<path d="M255.075 248.636C259.132 252.679 265.606 257.548 265.174 256.261C264.052 253.138 261.98 250.474 259.65 249.096C256.974 247.626 253.694 247.258 255.075 248.636Z" fill="white"/>
<path d="M168.756 250.106C167.806 250.841 167.461 251.484 167.893 251.484C168.411 251.484 169.533 250.841 170.482 250.106C171.346 249.371 171.777 248.82 171.259 248.82C170.828 248.82 169.619 249.371 168.756 250.106Z" fill="white"/>
<path d="M235.308 252.954C233.927 254.699 233.063 256.353 233.322 256.812C233.495 257.18 232.373 258.925 230.733 260.579C226.589 264.896 227.021 266.183 231.251 262.14C233.15 260.303 235.394 258.833 236.171 258.833C237.293 258.833 237.034 259.476 235.049 261.314C231.596 264.713 228.661 268.571 230.388 267.561C233.409 265.631 238.933 260.303 238.502 259.568C238.243 259.109 238.415 258.19 239.02 257.547C239.538 256.812 240.314 254.883 240.746 253.137L241.523 250.106L240.055 252.311C237.293 256.628 235.739 258.374 235.135 257.823C234.876 257.455 235.48 255.71 236.516 253.872C238.933 249.463 238.415 249.095 235.308 252.954Z" fill="white"/>
<path d="M172.983 252.311C172.466 252.77 170.739 253.597 169.099 254.056C167.459 254.608 166.768 255.067 167.632 255.067C169.358 255.159 175.142 252.77 175.142 252.035C175.142 251.208 173.847 251.392 172.983 252.311Z" fill="white"/>
<path d="M255.509 252.035C256.804 255.159 261.897 262.508 262.156 261.681C262.76 259.752 260.429 255.159 257.753 253.138C256.372 252.035 255.336 251.576 255.509 252.035Z" fill="white"/>
<path d="M241.866 257.456C240.743 259.201 239.88 260.855 239.88 261.13C239.88 261.314 238.413 263.06 236.686 264.805L233.406 268.021L237.981 265.632C240.657 264.254 243.16 263.519 244.024 263.886C245.232 264.346 244.973 264.713 242.902 265.724C241.52 266.367 239.535 267.561 238.585 268.48C237.636 269.307 237.377 269.674 238.068 269.307C238.758 268.939 241.434 268.388 244.11 268.112C248.944 267.561 248.944 267.561 250.152 263.611C250.757 261.498 251.016 259.017 250.67 258.099C250.239 256.904 249.721 257.639 248.858 260.855C248.167 263.335 247.218 265.264 246.7 265.264C246.182 265.264 246.009 264.621 246.268 263.795C247.131 261.314 247.908 255.159 247.304 255.159C247.045 255.159 246.182 256.813 245.405 258.834C244.628 260.855 243.506 262.508 242.815 262.508C241.348 262.508 241.348 262.508 242.988 258.926C244.887 254.792 244.11 253.781 241.866 257.456Z" fill="white"/>
<path d="M177.299 256.078C177.04 256.537 177.213 256.996 177.645 256.996C178.163 256.996 178.594 256.537 178.594 256.078C178.594 255.526 178.422 255.159 178.249 255.159C177.99 255.159 177.558 255.526 177.299 256.078Z" fill="white"/>
<path d="M255.081 256.996C255.426 258.282 256.203 261.13 256.807 263.427C257.584 266.55 258.016 267.193 258.448 265.907C259.397 263.427 258.189 258.374 256.117 256.445C254.304 254.699 254.304 254.699 255.081 256.996Z" fill="white"/>
<path d="M252.06 263.151C251.974 269.398 252.233 270.776 253.269 270.776C254.995 270.776 254.995 262.325 253.269 258.374C252.147 255.802 252.147 255.986 252.06 263.151Z" fill="white"/>
<path d="M172.983 257.915C171.861 258.466 171.689 258.742 172.552 258.742C173.242 258.742 174.451 258.374 175.141 257.915C176.695 256.812 175.314 256.812 172.983 257.915Z" fill="white"/>
<path d="M179.893 260.671C179.634 261.13 179.721 261.59 180.239 261.59C180.67 261.59 181.361 261.13 181.62 260.671C181.879 260.12 181.792 259.752 181.274 259.752C180.843 259.752 180.152 260.12 179.893 260.671Z" fill="white"/>
<path d="M175.84 262.233C176.357 262.417 177.393 262.417 177.998 262.233C178.515 261.957 178.084 261.774 176.875 261.774C175.667 261.774 175.235 261.957 175.84 262.233Z" fill="white"/>
<path d="M181.184 265.264C180.062 265.999 180.062 266.183 181.357 266.183C182.134 266.183 183.084 265.724 183.342 265.264C184.033 264.07 182.911 264.07 181.184 265.264Z" fill="white"/>
<path d="M173.244 266.826C173.762 267.01 174.798 267.01 175.402 266.826C175.92 266.55 175.488 266.367 174.28 266.367C173.071 266.367 172.64 266.55 173.244 266.826Z" fill="white"/>
<path d="M241.183 271.236C238.852 272.522 237.643 273.349 238.593 273.165C239.542 272.889 242.564 272.43 245.326 272.063C248.433 271.695 250.16 271.052 249.987 270.409C249.383 268.572 245.585 268.847 241.183 271.236Z" fill="white"/>
<path d="M239.022 275.278C236.519 275.829 237.209 276.013 243.079 276.564C246.964 276.931 250.848 277.483 251.625 277.85C252.661 278.218 252.92 277.942 252.661 276.656C252.402 275.186 251.539 274.91 247.223 274.819C244.374 274.727 240.662 274.91 239.022 275.278Z" fill="white"/>
</svg>
